<svg width="24" height="24" viewBox="0 0 24 24" fill="none" xmlns="http://www.w3.org/2000/svg">
<path fill-rule="evenodd" clip-rule="evenodd" d="M6.89536 6.69625C8.83007 7.31528 10.9289 6.44593 11.8592 4.64016C11.8829 4.59424 11.9029 4.58119 11.9137 4.57487C11.9312 4.56468 11.961 4.55432 12 4.55432C12.039 4.55432 12.0688 4.56468 12.0862 4.57487C12.0971 4.58119 12.1171 4.59424 12.1408 4.64016C13.0711 6.44593 15.1699 7.31528 17.1046 6.69625C17.1538 6.68051 17.1772 6.68545 17.1894 6.68865C17.2089 6.69381 17.2373 6.70751 17.2649 6.73511C17.2925 6.7627 17.3062 6.79106 17.3113 6.81062C17.3145 6.82276 17.3195 6.84616 17.3037 6.89536C16.6847 8.83007 17.554 10.9289 19.3598 11.8592C19.4057 11.8829 19.4188 11.9029 19.4251 11.9137C19.4353 11.9312 19.4457 11.961 19.4457 12C19.4457 12.039 19.4353 12.0688 19.4251 12.0862C19.4188 12.0971 19.4057 12.1171 19.3598 12.1408C17.554 13.0711 16.6847 15.1699 17.3037 17.1046C17.3195 17.1538 17.3145 17.1772 17.3113 17.1894C17.3062 17.2089 17.2925 17.2373 17.2649 17.2649C17.2373 17.2925 17.2089 17.3062 17.1894 17.3113C17.1772 17.3145 17.1538 17.3195 17.1046 17.3037C15.1699 16.6847 13.0711 17.554 12.1408 19.3598C12.1171 19.4057 12.0971 19.4188 12.0862 19.4251C12.0688 19.4353 12.039 19.4457 12 19.4457C11.961 19.4457 11.9312 19.4353 11.9137 19.4251C11.9029 19.4188 11.8829 19.4057 11.8592 19.3598C10.9289 17.554 8.83007 16.6847 6.89536 17.3037C6.84616 17.3195 6.82276 17.3145 6.81062 17.3113C6.79106 17.3062 6.7627 17.2925 6.73511 17.2649C6.70751 17.2373 6.69381 17.2089 6.68865 17.1894C6.68545 17.1772 6.68051 17.1538 6.69625 17.1046C7.31528 15.1699 6.44593 13.0711 4.64016 12.1408C4.59424 12.1171 4.58119 12.0971 4.57487 12.0862C4.56468 12.0688 4.55432 12.039 4.55432 12C4.55432 11.961 4.56468 11.9312 4.57487 11.9137C4.58119 11.9029 4.59424 11.8829 4.64016 11.8592C6.44593 10.9289 7.31528 8.83007 6.69625 6.89536C6.68051 6.84616 6.68545 6.82276 6.68865 6.81062C6.69381 6.79106 6.70751 6.7627 6.73511 6.73511C6.7627 6.70751 6.79106 6.69381 6.81062 6.68865C6.82276 6.68545 6.84616 6.68051 6.89536 6.69625ZM10.0813 3.72418C10.8849 2.16437 13.1151 2.16437 13.9187 3.72418C14.4016 4.66145 15.4909 5.11268 16.4951 4.79138C18.1663 4.25667 19.7433 5.83364 19.2086 7.50484C18.8873 8.50904 19.3385 9.5984 20.2758 10.0813C21.8356 10.8849 21.8356 13.1151 20.2758 13.9187C19.3385 14.4016 18.8873 15.4909 19.2086 16.4951C19.7433 18.1663 18.1663 19.7433 16.4951 19.2086C15.4909 18.8873 14.4016 19.3385 13.9187 20.2758C13.1151 21.8356 10.8849 21.8356 10.0813 20.2758C9.5984 19.3385 8.50904 18.8873 7.50484 19.2086C5.83364 19.7433 4.25667 18.1663 4.79138 16.4951C5.11268 15.4909 4.66145 14.4016 3.72418 13.9187C2.16437 13.1151 2.16437 10.8849 3.72418 10.0813C4.66145 9.5984 5.11268 8.50904 4.79138 7.50484C4.25667 5.83364 5.83364 4.25667 7.50484 4.79138C8.50904 5.11268 9.5984 4.66145 10.0813 3.72418ZM14 12C14 13.1046 13.1046 14 12 14C10.8954 14 10 13.1046 10 12C10 10.8954 10.8954 10 12 10C13.1046 10 14 10.8954 14 12ZM16 12C16 14.2091 14.2091 16 12 16C9.79086 16 8 14.2091 8 12C8 9.79086 9.79086 8 12 8C14.2091 8 16 9.79086 16 12Z" fill="black"/>
</svg>
