<svg width="24" height="24" viewBox="0 0 24 24" fill="none" xmlns="http://www.w3.org/2000/svg">
<path fill-rule="evenodd" clip-rule="evenodd" d="M16 10C16 13.3137 13.3137 16 10 16C6.68629 16 4 13.3137 4 10C4 6.68629 6.68629 4 10 4C13.3137 4 16 6.68629 16 10ZM14.9177 16.3105C13.5611 17.3692 11.8542 18 10 18C5.58172 18 2 14.4183 2 10C2 5.58172 5.58172 2 10 2C14.4183 2 18 5.58172 18 10C18 11.8542 17.3692 13.5611 16.3104 14.9177C16.3576 14.9507 16.4025 14.9883 16.4446 15.0304L20.9497 19.5355C21.3402 19.9261 21.3402 20.5592 20.9497 20.9497C20.5592 21.3403 19.926 21.3403 19.5355 20.9497L15.0303 16.4446C14.9883 16.4025 14.9507 16.3576 14.9177 16.3105Z" fill="black"/>
</svg>
